{"title":"What.Happens.in.Vegas.2008.DvDRip.Xvid.IARG","uid":6528569,"size":2142404795,"categoryP":"video","categoryS":"movies","magnet":"?xt=urn:btih:22eada4f4edf25143909d7b03b6cff27b54279de&amp;dn=What.Happens.in.Vegas.2008.DvDRip.Xvid.IARG&amp;tr=udp%3A%2F%2Ftracker.openbittorrent.com%3A80&amp;tr=udp%3A%2F%2Fopen.demonii.com%3A1337&amp;tr=udp%3A%2F%2Ftracker.coppersurfer.tk%3A6969&amp;tr=udp%3A%2F%2Fexodus.desync.com%3A6969","seeders":0,"leechers":1,"uploader":"scoobey","files":-1,"time":1310241220,"description":"What Happens in Vegas (2008)\nPG_13    Comedy | Romance   -  9 May 2008 (USA) \n\n\nwww.imdb.com/title/tt1033643/\n &lt;a href=&quot;\nhttp://i1178.photobucket.com/albums/x374/IARG1/WhatHappensinVegasavi_thumbs_20110708_233209.jpg&quot; rel=&quot;nofollow&quot; target=&quot;_NEW&quot;&gt;\nhttp://i1178.photobucket.com/albums/x374/IARG1/WhatHappensinVegasavi_thumbs_20110708_233209.jpg&lt;/a&gt;\n\n &lt;a href=&quot;\nhttp://i1178.photobucket.com/albums/x374/IARG1/WhatHappensinVegasavi_thumbs_20110708_233209.jpg&quot; rel=&quot;nofollow&quot; target=&quot;_NEW&quot;&gt;\nhttp://i1178.photobucket.com/albums/x374/IARG1/WhatHappensinVegasavi_thumbs_20110708_233209.jpg&lt;/a&gt;\n\n\n\nA man and a woman are compelled, for legal reasons, to live life as a couple for a limited period of time. At stake is a large amount of money.\n\nDirector:\nTom Vaughan\n\nWriter:\nDana Fox\n\nStars:\nCameron Diaz, Ashton Kutcher and Rob Corddry \n\n\n\nFormat                           : AVI\nFormat/Info                      : Audio Video Interleave\nFormat profile                   : OpenDML\nFile size                        : 2.00 GiB\nDuration                         : 1h 38mn\nOverall bit rate                 : 2 893 Kbps\nWriting application              : VirtualDubMod 1.5.4.1 (build 2178/release)\nWriting library                  : VirtualDubMod build 2178/release\n\n\nLanguage                         : English\nVideo\nID                               : 0\nFormat                           : MPEG-4 Visual\nFormat profile                   : Advanced Simple@L5\nFormat settings, BVOP            : No\nFormat settings, QPel            : No\nFormat settings, GMC             : No warppoints\nFormat settings, Matrix          : Custom\nCodec ID                         : XVID\nCodec ID/Hint                    : XviD\nDuration                         : 1h 38mn\nBit rate                         : 2 705 Kbps\nWidth                            : 720 pixels\nHeight                           : 304 pixels\nDisplay aspect ratio             : 2.35:1\nFrame rate                       : 23.976 fps\nColor space                      : YUV\nChroma subsampling               : 4:2:0\nBit depth                        : 8 bits\nScan type                        : Progressive\nCompression mode                 : Lossy\nBits/(Pixel*Frame)               : 0.515\nStream size                      : 1.87 GiB (93%)\nWriting library                  : XviD 64\n\nAudio\nID                               : 1\nFormat                           : MPEG Audio\nFormat version                   : Version 1\nFormat profile                   : Layer 3\nMode                             : Joint stereo\nMode extension                   : MS Stereo\nCodec ID                         : 55\nCodec ID/Hint                    : MP3\nDuration                         : 1h 38mn\nBit rate mode                    : Variable\nBit rate                         : 172 Kbps\nNominal bit rate                 : 192 Kbps\nChannel(s)                       : 2 channels\nSampling rate                    : 48.0 KHz\nCompression mode                 : Lossy\nStream size                      : 121 MiB (6%)\nAlignment                        : Aligned on interleaves\nInterleave, duration             : 24 ms (0.58 video frame)\nInterleave, preload duration     : 107 ms\nWriting library                  : LAME3.98r\nEncoding settings                : -m j -V 4 -q 2 -lowpass 18.6 --abr 192\n\n\n\n","torrent":{"xt":"urn:btih:22eada4f4edf25143909d7b03b6cff27b54279de","amp;dn":"What.Happens.in.Vegas.2008.DvDRip.Xvid.IARG","amp;tr":["udp%3A%2F%2Ftracker.openbittorrent.com%3A80","udp%3A%2F%2Fopen.demonii.com%3A1337","udp%3A%2F%2Ftracker.coppersurfer.tk%3A6969","udp%3A%2F%2Fexodus.desync.com%3A6969"],"infoHash":"22eada4f4edf25143909d7b03b6cff27b54279de","infoHashBuffer":{"type":"Buffer","data":[34,234,218,79,78,223,37,20,57,9,215,176,59,108,255,39,181,66,121,222]},"announce":[],"urlList":[]}}